<?xml version="1.0" encoding="UTF-8" standalone="no"?><!DOCTYPE svg PUBLIC "-//W3C//DTD SVG 1.1//EN" "http://www.w3.org/Graphics/SVG/1.1/DTD/svg11.dtd"><svg width="100%" height="100%" viewBox="0 0 1750 1750" version="1.1" xmlns="http://www.w3.org/2000/svg" xmlns:xlink="http://www.w3.org/1999/xlink" xml:space="preserve" xmlns:serif="http://www.serif.com/" style="fill-rule:evenodd;clip-rule:evenodd;"><path d="M870.833,62.5c-444.144,2.278 -808.333,368.339 -808.333,812.489c0,445.725 366.776,812.5 812.5,812.5c445.724,0 812.5,-366.775 812.5,-812.5c0,-444.15 -364.189,-810.211 -808.333,-812.489l-8.334,0Z" style="fill:none;fill-rule:nonzero;stroke:#fff;stroke-width:108.33px;"/><path d="M875,62.5l0,1625m812.5,-812.5l-1625,0m183.333,-500c375.518,267.9 882.816,267.9 1258.33,0m-0,1000c-375.518,-267.9 -882.816,-267.9 -1258.33,0m566.667,-1291.67c-234.223,197.808 -369.566,489.259 -369.566,795.834c-0,306.575 135.343,598.026 369.566,795.833m125,0c234.223,-197.807 369.566,-489.258 369.566,-795.833c0,-306.575 -135.343,-598.026 -369.566,-795.834" style="fill:none;fill-rule:nonzero;stroke:#fff;stroke-width:75px;"/></svg>